<?xml version="1.0" encoding="UTF-8" standalone="no"?>
<svg
   xmlns="http://www.w3.org/2000/svg"
   version="1.1"
   width="100"
   height="97"
   viewBox="-0.014 0.028 100 97"
   id="svg2985"
   xml:space="preserve">
<defs
   id="defs2987" />
<path
   d="M 77.576362,24.967759 V 5.5701687 C 77.576362,2.5092289 75.094763,0.028 72.034193,0.028 H 5.5281687 C 2.4672289,0.028 -0.014,2.5092289 -0.014,5.5701687 V 91.473783 c 0,3.060571 2.4812289,5.542169 5.5421687,5.542169 H 72.034193 c 3.06057,0 5.542169,-2.481598 5.542169,-5.542169 V 72.076193 H 60.949856 v 5.542169 c 0,1.530377 -1.240523,2.771084 -2.771085,2.771084 H 19.38359 c -1.530377,0 -2.771084,-1.240707 -2.771084,-2.771084 V 19.42559 c 0,-1.530377 1.240707,-2.771084 2.771084,-2.771084 h 38.795181 c 1.530562,0 2.771085,1.240707 2.771085,2.771084 v 5.542169 h 16.626506 z"
   id="path2989"
      style="fill-rule:evenodd" />
<path
   d="M 54.022145,22.19649 H 23.540402 c -0.765374,0 -1.385543,0.620169 -1.385543,1.385542 v 29.096571 c 0,0.765373 0.620169,1.385357 1.385543,1.385357 h 18.704819 c 0.382594,0 0.692771,0.310361 0.692771,0.692956 v 8.313068 c 0,0.382594 -0.310177,0.692771 -0.692771,0.692771 h -6.927896 c -0.382594,0 -0.692771,-0.310177 -0.692771,-0.692771 V 59.606313 H 22.154859 v 13.855422 c 0,0.765189 0.620169,1.385542 1.385543,1.385542 h 30.481743 c 0.765373,0 1.385542,-0.620353 1.385542,-1.385542 V 44.36535 c 0,-0.765374 -0.620169,-1.385543 -1.385542,-1.385543 h -18.70482 c -0.382594,0 -0.692771,-0.310176 -0.692771,-0.692771 l -1.84e-4,-8.313253 c 0,-0.382594 0.310176,-0.692771 0.692771,-0.692771 h 6.927895 c 0.382595,0 0.692771,0.310177 0.692771,0.692771 l 1.85e-4,3.463856 H 55.407687 V 23.582032 c 0,-0.765373 -0.620169,-1.385542 -1.385542,-1.385542 z"
   id="path2991" />
<polygon
   points="420,225 450,225 450,0 540,0 540,525 450,525 450,300 420,300 420,360 330,360 330,165 420,165 "
   transform="matrix(0.18473896,0,0,0.18473896,-0.014,0.028)"
   id="polygon2993" />
</svg>
